<svg xmlns="http://www.w3.org/2000/svg" xmlns:xlink="http://www.w3.org/1999/xlink" width="26" height="26" xmlns:v="https://vecta.io/nano"><defs><linearGradient x1="71.5773467%" y1="81.3844029%" x2="25.3574091%" y2="39.0256332%" id="A"><stop stop-color="#f6ae42" offset="0%"/><stop stop-color="#fdca48" offset="100%"/></linearGradient><path d="M14.406 110.687a.47.47 0 0 1 .469.469 2.26 2.26 0 0 1-.2.915l-.01.023h-2.023c-.703 0-1.347.393-1.668 1.018l-.01.02-1.65 3.3a.47.47 0 0 0 .229.639l.087.04.064.03.043.02.063.028.042.018.042.018.02.01.042.017.042.017v.008l.042.016c.402.154.805.246 1.318.204.977-.08 1.833-.693 2.28-1.565l.013-.026.027-.054h.328l3.33 3.33a1.36 1.36 0 0 1-.585.362l-.02.006-4.003 1.258a1.39 1.39 0 0 1-1.405-.334l-.012-.012-1.328-1.328h-2.15v-6.562h.827a.47.47 0 0 0 .414-.25l.005-.01.42-.838c.236-.472.716-.77 1.242-.778h3.655zm6.125 1.875a.47.47 0 0 1 .469.459v.01 5.625a.47.47 0 0 1-.459.469h-.01-1.437v-6.562h1.438zm-13.625 0v6.563H5.47a.47.47 0 0 1-.469-.459v-.01-5.625a.47.47 0 0 1 .459-.469h.01 1.438zm11.25.47v5.625l-3.475-3.475c-.17-.17-.406-.27-.647-.275h-.015-.907l-.31.617c-.32.64-.962 1.04-1.676 1.04-.25 0-.495-.05-.727-.148l-.023-.01 1.427-2.855a.93.93 0 0 1 .824-.518h.014 5.514zm-9.238-5.02a.47.47 0 0 1 .655-.008l.008.008.938.938a.47.47 0 0 1 0 .663.47.47 0 0 1-.655.008l-.008-.008-.937-.937a.47.47 0 0 1 0-.663zm7.5 0a.47.47 0 0 1 .663 0 .47.47 0 0 1 .008.655l-.008.008-.937.938a.47.47 0 0 1-.663 0 .47.47 0 0 1-.008-.655l.008-.008.937-.938zM13 106a.47.47 0 0 1 .469.459v.01 1.406a.47.47 0 0 1-.469.469.47.47 0 0 1-.469-.459v-.01-1.406A.47.47 0 0 1 13 106z" id="B"/></defs><g transform="translate(0 -100)" fill-rule="evenodd"><use fill="url(#A)" xlink:href="#B"/><use fill-opacity=".22" fill="#ffa236" xlink:href="#B"/></g></svg>