<svg xmlns="http://www.w3.org/2000/svg" width="26" height="26"  xmlns:v="https://vecta.io/nano"><defs><linearGradient x1="71.5773467%" y1="70.4441185%" x2="25.3574091%" y2="42.8511861%" id="A"><stop stop-color="#f6ae42" offset="0%"/><stop stop-color="#fdca48" offset="100%"/></linearGradient></defs><path d="M20 11.55v5.694c0 .68-.55 1.246-1.216 1.257H7.253c-.684 0-1.24-.558-1.253-1.257h0V11.55h14zm-2.69 3.327c-.134.118-.137.326 0 .444v.037l.22.185h-2.468c-.18.013-.332.165-.332.37 0 .165.146.315.332.333h2.468l-.22.185c-.137.146-.137.36 0 .48.06.078.148.11.22.11a.52.52 0 0 0 .258-.074V16.9l.774-.776c.14-.13.144-.34.037-.48h-.037l-.774-.776c-.137-.144-.35-.144-.48 0zm-3.684-1.368v.037l-.774.776a.36.36 0 0 0-.037.481h.037l.774.776c.068.078.155.11.258.11.07 0 .156-.033.22-.11a.3.3 0 0 0 0-.444V15.1l-.22-.185h2.542c.18-.013.332-.164.332-.333 0-.202-.146-.35-.332-.37h0-2.542l.22-.185c.133-.146.133-.36 0-.48-.128-.14-.336-.144-.48-.037zM18.747 8c.684 0 1.24.558 1.253 1.257h0v.998H6v-.998C6 8.576 6.55 8.01 7.216 8h11.532z" fill="url(#A)" fill-rule="evenodd"/></svg>