<svg xmlns="http://www.w3.org/2000/svg" width="26" height="26"  xmlns:v="https://vecta.io/nano"><defs><linearGradient x1="68.9644649%" y1="86.3450996%" x2="28.3414728%" y2="37.2909975%" id="A"><stop stop-color="#f6ae42" offset="0%"/><stop stop-color="#fdca48" offset="100%"/></linearGradient></defs><path d="M17.922 10.15c1.136 0 2.06.9 2.078 2.015v.034 1.698c0 .072-.058.132-.13.135h-.006-3.12c-.84 0-1.54.658-1.554 1.486-.013.835.665 1.52 1.506 1.533h.026 3.145c.074 0 .133.057.137.13v1.704c0 1.12-.912 2.03-2.044 2.048h-.034-9.844c-1.136 0-2.06-.9-2.078-2.015v-.034V12.2c0-1.12.912-2.03 2.044-2.048h.034 9.844zm1.94 4.744c.074 0 .133.057.137.13v.006 1.024c0 .072-.058.132-.13.135h-.006-3.13c-.367 0-.677-.296-.67-.658.006-.348.292-.63.645-.636h.01 3.145zm-2.817-6.54l.356 1.247H9.626l6.64-1.69c.34-.086.685.1.78.442zM13.76 6.27l.01.015 1 1.357-6.666 1.672 4.7-3.19a.71.71 0 0 1 .954.148z" fill="url(#A)" fill-rule="evenodd"/></svg>